# xmcd CD database file
#
# Track frame offsets:
#	150
#	11684
#	23568
#	42322
#	54944
#	68684
#	85296
#	105964
#	118400
#	133751
#	142722
#	152636
#	169909
#	187792
#	202872
#	215379
#	232281
#	244788
#
# Disc length: 3462 seconds
#
# Revision: 0
# Processed by: cddbd v1.5.2PL0 Copyright (c) Steve Scherf et al.
# Submitted via: CdAid (MTCDDB.DLL V2003.12.21)
#
DISCID=ea0d8412
DTITLE=Yves Montand - Yves Montand
DYEAR=2009
DGENRE=Rock
TTITLE0=Les grands boulevards (Live)
TTITLE1=Le chat de la voisine (Live)
TTITLE2=Battling Joe (Live)
TTITLE3=La chansonnette
TTITLE4=Trois petites notes de musique
TTITLE5=Il n'y a plus d'après
TTITLE6=La chanson de Bilbao
TTITLE7=En sortant de l'école
TTITLE8=Les feuilles mortes
TTITLE9=Bella ciao
TTITLE10=Syracuse
TTITLE11=Barbara
TTITLE12=Est-ce ainsi que les hommes vivent?
TTITLE13=Ma gigolette
TTITLE14=Sanguine
TTITLE15=Les cireurs de souliers de Broadway
TTITLE16=À bicyclette
TTITLE17=L'addition
EXTD=Compilation 2009 Mercury, un label Universal Music France ID3G:  17 YEAR:
EXTD=2009
EXTT0=
EXTT1=
EXTT2=
EXTT3=
EXTT4=
EXTT5=
EXTT6=
EXTT7=
EXTT8=
EXTT9=
EXTT10=
EXTT11=
EXTT12=
EXTT13=
EXTT14=
EXTT15=
EXTT16=
EXTT17=
PLAYORDER=
